<svg width="305" height="126" viewBox="0 0 305 126" fill="none" xmlns="http://www.w3.org/2000/svg">
<path d="M0.3 86.8C4.5 77.3333 8.2 69.8667 11.4 64.4C16.7333 55.4 22.5 47.1333 28.7 39.6C23.5667 38.8667 19.4 38.5 16.2 38.5L20.5 26.6C28.5 26.9333 36.2 27.7333 43.6 29C51 30.2 58.2333 32.3333 65.3 35.4L71.2 48.8C68 62.3333 60.9 73.5333 49.9 82.4C39.7667 90.5333 27.5 95.9333 13.1 98.6L0.3 86.8ZM17.9 83.7C26.9667 81.1 35 76.6333 42 70.3C49.4 63.6333 54.2667 55.8667 56.6 47C49.4667 44 41.1333 41.7 31.6 40.1L40.4 47.3C31.0667 59.1 23.5667 71.2333 17.9 83.7ZM95.3383 76.7C92.2049 76.7 89.7383 76.4667 87.9383 76C86.8716 78.6 86.2049 81.8333 85.9383 85.7C97.4049 85.0333 108.472 82.4667 119.138 78C122.738 76.5333 126.205 74.8 129.538 72.8L131.638 82.9C125.438 86.8333 118.105 90.3 109.638 93.3C100.638 96.5 92.1383 98.3 84.1383 98.7L71.7383 87.2C71.7383 78 74.2383 69.6 79.2383 62C82.8383 56.7333 86.9049 52.5667 91.4383 49.5C96.0383 46.4333 100.438 44.2333 104.638 42.9L121.538 56.9C119.872 63.8333 116.705 68.8667 112.038 72C107.372 75.1333 101.805 76.7 95.3383 76.7ZM92.1383 67C96.0049 67 99.3716 65.9333 102.238 63.8C105.572 61.2667 107.238 57.7333 107.238 53.2C100.505 56.8667 95.4716 61.4667 92.1383 67ZM167.447 81.3C178.247 78.1667 185.814 75.3333 190.147 72.8L192.347 82.9C187.014 86.9 181.047 90.5333 174.447 93.8C172.114 95 170.08 95.9 168.347 96.5L163.447 91.1C161.58 99.5667 159.38 106.333 156.847 111.4C154.447 116.067 151.047 120.733 146.647 125.4C139.314 125.2 131.28 124.033 122.547 121.9C119.814 121.233 117.314 120.5 115.047 119.7L114.447 103.2C118.914 99.2667 123.88 95.9333 129.347 93.2L123.547 89C124.147 80.2 128.714 68.8667 137.247 55C139.914 50.6667 142.847 46.3333 146.047 42L156.447 49.9C144.78 66.3 138.48 78.3667 137.547 86.1C141.08 85.5667 143.914 84.7333 146.047 83.6C150.314 81.3333 153.714 78.0333 156.247 73.7C161.98 62.2333 167.114 53.3 171.647 46.9L182.247 55.2C175.714 65.2 170.78 73.9 167.447 81.3ZM124.547 110.5C130.68 111.9 135.747 112.667 139.747 112.8C144.08 109.133 147.48 103.367 149.947 95.5C139.08 99.9 130.614 104.9 124.547 110.5ZM209.791 76.7C206.658 76.7 204.191 76.4667 202.391 76C201.325 78.6 200.658 81.8333 200.391 85.7C211.858 85.0333 222.925 82.4667 233.591 78C237.191 76.5333 240.658 74.8 243.991 72.8L246.091 82.9C239.891 86.8333 232.558 90.3 224.091 93.3C215.091 96.5 206.591 98.3 198.591 98.7L186.191 87.2C186.191 78 188.691 69.6 193.691 62C197.291 56.7333 201.358 52.5667 205.891 49.5C210.491 46.4333 214.891 44.2333 219.091 42.9L235.991 56.9C234.325 63.8333 231.158 68.8667 226.491 72C221.825 75.1333 216.258 76.7 209.791 76.7ZM206.591 67C210.458 67 213.825 65.9333 216.691 63.8C220.025 61.2667 221.691 57.7333 221.691 53.2C214.958 56.8667 209.925 61.4667 206.591 67ZM257 99.5C252.2 96.3 248 93.2667 244.4 90.4C241.133 87.5333 237.567 84.1 233.7 80.1L244 72.8C248.667 77.6667 252.1 80.9333 254.3 82.6C256.5 84.2 258.467 85.5667 260.2 86.7C262.067 86.5 265.1 85.8667 269.3 84.8L252.7 69.1C251.167 67.5 249.967 66.0667 249.1 64.8C251.633 60.2667 256 55.5667 262.2 50.7C268 46.1667 273.533 43.1333 278.8 41.6L294.8 54.5C293.667 59.0333 291 65.0333 286.8 72.5L276.1 64.5C277.5 62.4333 278.733 60.2 279.8 57.8C280.867 55.4 281.5 53.8 281.7 53C277.967 54.4 274.133 56.9333 270.2 60.6C268.8 61.9333 267.533 63.3 266.4 64.7C267.667 66.6333 269.6 68.6667 272.2 70.8C276.6 74.6 280.3 77.8667 283.3 80.6C290.7 78.0667 296.967 75.4667 302.1 72.8L304.2 82.9C298.867 86.7 291.367 90.2333 281.7 93.5C272.767 96.5 264.533 98.5 257 99.5Z" fill="url(#paint0_linear_63_27)"/>
<defs>
<linearGradient id="paint0_linear_63_27" x1="212.01" y1="14.3581" x2="12.0323" y2="96.9444" gradientUnits="userSpaceOnUse">
<stop stop-color="#FAFF00"/>
<stop offset="1" stop-color="#00F0FF"/>
</linearGradient>
</defs>
</svg>
